{
  "accessors": [
    {
      "bufferView": 2,
      "componentType": 5126,
      "count": 28875,
      "max": [
        11.631254196166992,
        29.128049850463867,
        13.759642601013184
      ],
      "min": [
        -13.715065002441406,
        0.19108456373214722,
        -12.610227584838867
      ],
      "type": "VEC3"
    },
    {
      "bufferView": 2,
      "byteOffset": 346500,
      "componentType": 5126,
      "count": 28875,
      "max": [
        0.9999549388885498,
        1.0,
        0.9998260736465454
      ],
      "min": [
        -0.9998607635498047,
        -1.0,
        -0.9999469518661499
      ],
      "type": "VEC3"
    },
    {
      "bufferView": 3,
      "componentType": 5126,
      "count": 28875,
      "max": [
        0.9935415983200073,
        0.9999875426292419,
        0.9993625283241272,
        1.0
      ],
      "min": [
        -0.9937180876731873,
        -0.9999527335166931,
        -0.9998238682746887,
        -1.0
      ],
      "type": "VEC4"
    },
    {
      "bufferView": 1,
      "componentType": 5126,
      "count": 28875,
      "max": [
        0.9982845783233643,
        0.9978765845298767
      ],
      "min": [
        0.0016992054879665375,
        0.0016989205032587051
      ],
      "type": "VEC2"
    },
    {
      "bufferView": 1,
      "byteOffset": 231000,
      "componentType": 5126,
      "count": 28875,
      "max": [
        0.9982845783233643,
        0.9978765845298767
      ],
      "min": [
        0.0016992054879665375,
        0.0016989205032587051
      ],
      "type": "VEC2"
    },
    {
      "bufferView": 1,
      "byteOffset": 462000,
      "componentType": 5126,
      "count": 28875,
      "max": [
        0.9982845783233643,
        0.9978765845298767
      ],
      "min": [
        0.0016992054879665375,
        0.0016989205032587051
      ],
      "type": "VEC2"
    },
    {
      "bufferView": 1,
      "byteOffset": 693000,
      "componentType": 5126,
      "count": 28875,
      "max": [
        0.9982845783233643,
        0.9978765845298767
      ],
      "min": [
        0.0016992054879665375,
        0.0016989205032587051
      ],
      "type": "VEC2"
    },
    {
      "bufferView": 0,
      "componentType": 5125,
      "count": 146394,
      "type": "SCALAR"
    }
  ],
  "asset": {
    "extras": {
      "author": "HUNNU Culture Heritage Digital Center湖南师大文化遗产数字化中心 (https://sketchfab.com/hunnudigital)",
      "license": "CC-BY-4.0 (http://creativecommons.org/licenses/by/4.0/)",
      "source": "https://sketchfab.com/3d-models/lion-figure-candelabrum-8e45c99acc5b49e68f17802d90469084",
      "title": "Lion Figure Candelabrum 长沙窑狮子小烛台 胡武强作品"
    },
    "generator": "Sketchfab-12.68.0",
    "version": "2.0"
  },
  "bufferViews": [
    {
      "buffer": 0,
      "byteLength": 585576,
      "name": "floatBufferViews",
      "target": 34963
    },
    {
      "buffer": 0,
      "byteLength": 924000,
      "byteOffset": 585576,
      "byteStride": 8,
      "name": "floatBufferViews",
      "target": 34962
    },
    {
      "buffer": 0,
      "byteLength": 693000,
      "byteOffset": 1509576,
      "byteStride": 12,
      "name": "floatBufferViews",
      "target": 34962
    },
    {
      "buffer": 0,
      "byteLength": 462000,
      "byteOffset": 2202576,
      "byteStride": 16,
      "name": "floatBufferViews",
      "target": 34962
    }
  ],
  "buffers": [
    {
      "byteLength": 2664576,
      "uri": "scene.bin"
    }
  ],
  "images": [
    {
      "uri": "textures/material_baseColor.jpeg"
    },
    {
      "uri": "textures/material_metallicRoughness.png"
    },
    {
      "uri": "textures/material_normal.jpeg"
    }
  ],
  "materials": [
    {
      "doubleSided": true,
      "name": "material",
      "normalTexture": {
        "index": 2,
        "scale": 0.5
      },
      "pbrMetallicRoughness": {
        "baseColorTexture": {
          "index": 0
        },
        "metallicFactor": 0.0,
        "metallicRoughnessTexture": {
          "index": 1
        }
      }
    }
  ],
  "meshes": [
    {
      "name": "Object_0",
      "primitives": [
        {
          "attributes": {
            "NORMAL": 1,
            "POSITION": 0,
            "TANGENT": 2,
            "TEXCOORD_0": 3,
            "TEXCOORD_1": 4,
            "TEXCOORD_2": 5,
            "TEXCOORD_3": 6
          },
          "indices": 7,
          "material": 0,
          "mode": 4
        }
      ]
    }
  ],
  "nodes": [
    {
      "children": [
        1
      ],
      "matrix": [
        1.0,
        0.0,
        0.0,
        0.0,
        0.0,
        2.220446049250313e-16,
        -1.0,
        0.0,
        0.0,
        1.0,
        2.220446049250313e-16,
        0.0,
        0.0,
        0.0,
        0.0,
        1.0
      ],
      "name": "Sketchfab_model"
    },
    {
      "children": [
        2
      ],
      "name": "root"
    },
    {
      "children": [
        3
      ],
      "matrix": [
        1.0,
        0.0,
        0.0,
        0.0,
        0.0,
        2.220446049250313e-16,
        1.0,
        0.0,
        0.0,
        -1.0,
        2.220446049250313e-16,
        0.0,
        0.0,
        0.0,
        0.0,
        1.0
      ],
      "name": "GLTF_SceneRootNode"
    },
    {
      "children": [
        4
      ],
      "matrix": [
        -0.08740823369751077,
        0.0,
        0.07052462918540711,
        0.0,
        -0.0,
        0.1123117208480835,
        0.0,
        0.0,
        -0.07052462918540711,
        -0.0,
        -0.08740823369751077,
        0.0,
        0.0,
        0.0,
        0.0,
        1.0
      ],
      "name": "Retopo_mesh.002_0"
    },
    {
      "mesh": 0,
      "name": "Object_4"
    }
  ],
  "samplers": [
    {
      "magFilter": 9729,
      "minFilter": 9987,
      "wrapS": 10497,
      "wrapT": 10497
    }
  ],
  "scene": 0,
  "scenes": [
    {
      "name": "Sketchfab_Scene",
      "nodes": [
        0
      ]
    }
  ],
  "textures": [
    {
      "sampler": 0,
      "source": 0
    },
    {
      "sampler": 0,
      "source": 1
    },
    {
      "sampler": 0,
      "source": 2
    }
  ]
}
