{
  "accessors": [
    {
      "bufferView": 2,
      "componentType": 5126,
      "count": 17081,
      "max": [
        17.453502655029297,
        4.708113670349121,
        12.825475692749023
      ],
      "min": [
        -21.29363250732422,
        -6.070959568023682,
        -8.163018226623535
      ],
      "type": "VEC3"
    },
    {
      "bufferView": 2,
      "byteOffset": 204972,
      "componentType": 5126,
      "count": 17081,
      "max": [
        0.9993759989738464,
        0.27129843831062317,
        0.9997377991676331
      ],
      "min": [
        -0.9211882948875427,
        -0.9999930262565613,
        -0.9687724113464355
      ],
      "type": "VEC3"
    },
    {
      "bufferView": 1,
      "componentType": 5126,
      "count": 17081,
      "max": [
        0.99853515625,
        0.9985279440879822
      ],
      "min": [
        0.00146484375,
        0.0014720559120178223
      ],
      "type": "VEC2"
    },
    {
      "bufferView": 1,
      "byteOffset": 136648,
      "componentType": 5126,
      "count": 17081,
      "max": [
        0.99853515625,
        0.9985279440879822
      ],
      "min": [
        0.00146484375,
        0.0014720559120178223
      ],
      "type": "VEC2"
    },
    {
      "bufferView": 0,
      "componentType": 5125,
      "count": 94116,
      "type": "SCALAR"
    }
  ],
  "asset": {
    "extras": {
      "author": "ESUN (https://sketchfab.com/eliteboy)",
      "license": "CC-BY-4.0 (http://creativecommons.org/licenses/by/4.0/)",
      "source": "https://sketchfab.com/3d-models/30ed287fec974cc79678286501f4373d",
      "title": "扇子正面"
    },
    "generator": "Sketchfab-12.65.0",
    "version": "2.0"
  },
  "bufferViews": [
    {
      "buffer": 0,
      "byteLength": 376464,
      "name": "floatBufferViews",
      "target": 34963
    },
    {
      "buffer": 0,
      "byteLength": 273296,
      "byteOffset": 376464,
      "byteStride": 8,
      "name": "floatBufferViews",
      "target": 34962
    },
    {
      "buffer": 0,
      "byteLength": 409944,
      "byteOffset": 649760,
      "byteStride": 12,
      "name": "floatBufferViews",
      "target": 34962
    }
  ],
  "buffers": [
    {
      "byteLength": 1059704,
      "uri": "scene.bin"
    }
  ],
  "images": [
    {
      "uri": "textures/Material_0_baseColor.jpeg"
    }
  ],
  "materials": [
    {
      "doubleSided": true,
      "name": "Material_0",
      "pbrMetallicRoughness": {
        "baseColorTexture": {
          "index": 0
        },
        "metallicFactor": 0.0,
        "roughnessFactor": 0.6
      }
    }
  ],
  "meshes": [
    {
      "name": "mainMeshNode_Material_0_0",
      "primitives": [
        {
          "attributes": {
            "NORMAL": 1,
            "POSITION": 0,
            "TEXCOORD_0": 2,
            "TEXCOORD_1": 3
          },
          "indices": 4,
          "material": 0,
          "mode": 4
        }
      ]
    }
  ],
  "nodes": [
    {
      "children": [
        1
      ],
      "matrix": [
        -0.9684963226318359,
        0.0734230056405068,
        -0.23795780539512632,
        0.0,
        -0.08489628881216049,
        -0.9956527352333069,
        0.03831740096211411,
        0.0,
        -0.23410996794700623,
        0.05731199681758859,
        0.9705193638801575,
        0.0,
        -4.1371750831604,
        -2.8224930763244633,
        2.624994277954101,
        1.0
      ],
      "name": "Sketchfab_model"
    },
    {
      "children": [
        2
      ],
      "matrix": [
        1.0,
        0.0,
        0.0,
        0.0,
        0.0,
        0.0,
        1.0,
        0.0,
        0.0,
        -1.0,
        0.0,
        0.0,
        0.0,
        0.0,
        0.0,
        1.0
      ],
      "name": "330c9200cf374bd6921346961864b800.fbx"
    },
    {
      "children": [
        3
      ],
      "name": "RootNode"
    },
    {
      "children": [
        4
      ],
      "name": "mainMeshNode"
    },
    {
      "mesh": 0,
      "name": "mainMeshNode_Material_0_0"
    }
  ],
  "samplers": [
    {
      "magFilter": 9729,
      "minFilter": 9987,
      "wrapS": 10497,
      "wrapT": 10497
    }
  ],
  "scene": 0,
  "scenes": [
    {
      "name": "Sketchfab_Scene",
      "nodes": [
        0
      ]
    }
  ],
  "textures": [
    {
      "sampler": 0,
      "source": 0
    }
  ]
}
